<svg xmlns="http://www.w3.org/2000/svg" xmlns:xlink="http://www.w3.org/1999/xlink" version="1.1" x="0px" y="0px" viewBox="0 0 96 120" enable-background="new 0 0 96 96" xml:space="preserve"><path d="M84.626,4.75c-3.646,0-6.611,2.966-6.611,6.611c0,1.226,0.341,2.37,0.923,3.355c-6.883-0.612-32.687-1.709-48.47,14.069  C14.499,44.755,14.586,72.254,14.871,79.035c-1.018-0.638-2.215-1.013-3.502-1.013c-3.646,0-6.611,2.966-6.611,6.611  c0,3.648,2.966,6.616,6.611,6.616c3.648,0,6.616-2.968,6.616-6.616c0-1.607-0.578-3.081-1.535-4.229  c-0.082-1.021-2.449-33.031,15.078-50.559c17.085-17.078,46.454-13.776,48.786-13.48c1.159,1.001,2.664,1.611,4.312,1.611  c3.648,0,6.616-2.968,6.616-6.616C91.242,7.716,88.274,4.75,84.626,4.75z"/><text x="0" y="111" fill="#000000" font-size="5px" font-weight="bold" font-family="'Helvetica Neue', Helvetica, Arial-Unicode, Arial, Sans-serif">Created by glyph.faisalovers</text><text x="0" y="116" fill="#000000" font-size="5px" font-weight="bold" font-family="'Helvetica Neue', Helvetica, Arial-Unicode, Arial, Sans-serif">from the Noun Project</text></svg>